<?xml version="1.0" encoding="UTF-8" standalone="no"?>
<!DOCTYPE svg PUBLIC "-//W3C//DTD SVG 1.1//EN" "http://www.w3.org/Graphics/SVG/1.1/DTD/svg11.dtd">
<svg width="100%" height="100%" viewBox="0 0 1440 900" version="1.1" xmlns="http://www.w3.org/2000/svg" xmlns:xlink="http://www.w3.org/1999/xlink" xml:space="preserve" xmlns:serif="http://www.serif.com/" style="fill-rule:evenodd;clip-rule:evenodd;stroke-linejoin:round;stroke-miterlimit:2;">
    <g>
        <g transform="matrix(34.9131,0,0,34.9131,255.759,843.038)">
            <rect x="0.083" y="-0.674" width="0.081" height="0.674" style="fill:rgb(0,81,65);fill-rule:nonzero;"/>
        </g>
        <g transform="matrix(34.9131,0,0,34.9131,264.383,843.038)">
            <path d="M0.158,-0.604L0.158,-0.335L0.26,-0.335C0.306,-0.335 0.341,-0.347 0.366,-0.373C0.39,-0.398 0.402,-0.43 0.402,-0.469C0.402,-0.559 0.352,-0.604 0.251,-0.604L0.158,-0.604ZM0.525,0L0.428,0L0.263,-0.266L0.158,-0.266L0.158,0L0.077,0L0.077,-0.674L0.246,-0.674C0.324,-0.674 0.383,-0.656 0.424,-0.619C0.464,-0.582 0.484,-0.532 0.484,-0.467C0.483,-0.42 0.47,-0.381 0.447,-0.348C0.424,-0.315 0.391,-0.292 0.348,-0.279L0.525,0Z" style="fill:rgb(0,81,65);fill-rule:nonzero;"/>
        </g>
        <g transform="matrix(34.9131,0,0,34.9131,283.515,843.038)">
            <path d="M0.43,-0.649L0.43,-0.564C0.389,-0.591 0.341,-0.604 0.284,-0.604C0.243,-0.604 0.211,-0.595 0.187,-0.576C0.163,-0.557 0.151,-0.532 0.151,-0.501C0.151,-0.485 0.154,-0.471 0.161,-0.458C0.167,-0.445 0.178,-0.434 0.194,-0.423C0.21,-0.411 0.224,-0.403 0.235,-0.398C0.246,-0.392 0.264,-0.384 0.288,-0.373C0.311,-0.363 0.328,-0.355 0.34,-0.349C0.352,-0.344 0.368,-0.335 0.387,-0.323C0.406,-0.31 0.42,-0.298 0.43,-0.286C0.439,-0.275 0.448,-0.26 0.456,-0.241C0.463,-0.222 0.467,-0.201 0.467,-0.179C0.467,-0.12 0.447,-0.074 0.406,-0.042C0.365,-0.009 0.313,0.007 0.249,0.007C0.178,0.007 0.118,-0.007 0.069,-0.036L0.069,-0.123C0.118,-0.086 0.177,-0.068 0.247,-0.068C0.289,-0.068 0.322,-0.077 0.346,-0.096C0.37,-0.115 0.382,-0.142 0.382,-0.177C0.382,-0.192 0.379,-0.205 0.374,-0.217C0.368,-0.228 0.359,-0.239 0.345,-0.249C0.333,-0.258 0.32,-0.266 0.309,-0.273C0.297,-0.279 0.281,-0.287 0.261,-0.296C0.257,-0.298 0.251,-0.301 0.243,-0.304C0.214,-0.317 0.193,-0.327 0.178,-0.335C0.163,-0.343 0.145,-0.355 0.125,-0.371C0.104,-0.386 0.089,-0.404 0.08,-0.425C0.071,-0.446 0.066,-0.47 0.066,-0.497C0.066,-0.554 0.086,-0.599 0.128,-0.631C0.169,-0.664 0.22,-0.68 0.282,-0.68C0.34,-0.68 0.389,-0.67 0.43,-0.649Z" style="fill:rgb(0,81,65);fill-rule:nonzero;"/>
        </g>
        <g transform="matrix(34.9131,0,0,34.9131,301.81,843.038)">
            <path d="M0.321,-0.705L0.321,-0.627C0.31,-0.633 0.299,-0.636 0.288,-0.636C0.267,-0.636 0.252,-0.629 0.241,-0.615C0.23,-0.601 0.225,-0.583 0.225,-0.562C0.225,-0.545 0.229,-0.519 0.235,-0.485C0.243,-0.451 0.246,-0.424 0.246,-0.405C0.246,-0.368 0.235,-0.336 0.215,-0.31C0.194,-0.284 0.163,-0.268 0.124,-0.262C0.163,-0.256 0.194,-0.24 0.215,-0.214C0.235,-0.187 0.246,-0.156 0.246,-0.119C0.246,-0.099 0.243,-0.072 0.235,-0.038C0.229,-0.004 0.225,0.022 0.225,0.039C0.225,0.06 0.23,0.078 0.241,0.092C0.252,0.106 0.267,0.113 0.288,0.113C0.299,0.113 0.31,0.11 0.321,0.104L0.321,0.181C0.307,0.186 0.291,0.189 0.274,0.189C0.237,0.189 0.206,0.175 0.182,0.148C0.157,0.121 0.144,0.085 0.144,0.04C0.144,0.022 0.148,-0.003 0.155,-0.034C0.162,-0.065 0.165,-0.088 0.165,-0.103C0.165,-0.17 0.136,-0.21 0.077,-0.222C0.071,-0.223 0.061,-0.224 0.048,-0.224L0.048,-0.301C0.06,-0.301 0.07,-0.302 0.077,-0.303C0.106,-0.307 0.128,-0.32 0.142,-0.342C0.158,-0.363 0.165,-0.389 0.165,-0.42C0.165,-0.435 0.162,-0.458 0.155,-0.489C0.148,-0.52 0.144,-0.545 0.144,-0.563C0.144,-0.608 0.157,-0.645 0.182,-0.672C0.207,-0.699 0.238,-0.713 0.274,-0.713C0.288,-0.713 0.304,-0.71 0.321,-0.705Z" style="fill:rgb(0,81,65);fill-rule:nonzero;"/>
        </g>
        <g transform="matrix(34.9131,0,0,34.9131,313.471,843.038)">
            <path d="M0.304,-0.064C0.345,-0.064 0.378,-0.081 0.405,-0.115C0.432,-0.149 0.445,-0.193 0.445,-0.248C0.445,-0.311 0.431,-0.359 0.404,-0.393C0.376,-0.426 0.341,-0.443 0.299,-0.443C0.263,-0.443 0.23,-0.428 0.2,-0.398C0.17,-0.368 0.155,-0.321 0.155,-0.257C0.155,-0.19 0.17,-0.141 0.199,-0.11C0.228,-0.079 0.263,-0.064 0.304,-0.064ZM0.155,-0.707L0.155,-0.431C0.192,-0.487 0.243,-0.515 0.309,-0.515C0.373,-0.515 0.425,-0.491 0.466,-0.442C0.507,-0.393 0.527,-0.328 0.527,-0.249C0.527,-0.178 0.508,-0.117 0.469,-0.067C0.431,-0.017 0.378,0.008 0.311,0.008C0.243,0.008 0.191,-0.02 0.155,-0.075L0.155,0L0.076,0L0.076,-0.707L0.155,-0.707Z" style="fill:rgb(0,81,65);fill-rule:nonzero;"/>
        </g>
        <g transform="matrix(34.9131,0,0,34.9131,333.371,843.038)">
            <path d="M0.058,-0.547L0.058,-0.624C0.097,-0.649 0.141,-0.661 0.192,-0.661C0.257,-0.661 0.307,-0.645 0.343,-0.612C0.378,-0.579 0.396,-0.538 0.396,-0.489C0.396,-0.454 0.387,-0.422 0.37,-0.394C0.352,-0.366 0.326,-0.345 0.291,-0.331C0.329,-0.322 0.359,-0.305 0.382,-0.279C0.404,-0.252 0.415,-0.219 0.415,-0.18C0.415,-0.127 0.396,-0.082 0.359,-0.047C0.322,-0.012 0.269,0.006 0.201,0.006C0.138,0.006 0.084,-0.005 0.038,-0.027L0.038,-0.106C0.087,-0.08 0.141,-0.067 0.199,-0.067C0.242,-0.067 0.275,-0.078 0.299,-0.1C0.322,-0.122 0.334,-0.151 0.334,-0.186C0.334,-0.221 0.321,-0.249 0.295,-0.268C0.268,-0.286 0.23,-0.296 0.181,-0.296L0.139,-0.296L0.139,-0.365L0.181,-0.365C0.218,-0.365 0.25,-0.376 0.276,-0.397C0.301,-0.418 0.314,-0.446 0.314,-0.481C0.314,-0.516 0.303,-0.543 0.281,-0.561C0.259,-0.579 0.229,-0.588 0.19,-0.588C0.144,-0.588 0.1,-0.574 0.058,-0.547Z" style="fill:rgb(0,81,65);fill-rule:nonzero;"/>
        </g>
        <g transform="matrix(34.9131,0,0,34.9131,349.641,843.038)">
            <path d="M0.125,-0.251C0.126,-0.196 0.142,-0.151 0.175,-0.115C0.208,-0.078 0.254,-0.06 0.314,-0.06C0.353,-0.06 0.389,-0.071 0.422,-0.093L0.422,-0.018C0.39,0.001 0.351,0.011 0.304,0.011C0.224,0.011 0.161,-0.015 0.114,-0.066C0.067,-0.117 0.043,-0.179 0.043,-0.252C0.043,-0.324 0.067,-0.386 0.114,-0.438C0.161,-0.49 0.225,-0.516 0.306,-0.516C0.349,-0.516 0.388,-0.507 0.422,-0.488L0.422,-0.413C0.391,-0.434 0.355,-0.444 0.314,-0.444C0.257,-0.444 0.211,-0.426 0.177,-0.389C0.142,-0.352 0.125,-0.306 0.125,-0.251Z" style="fill:rgb(0,81,65);fill-rule:nonzero;"/>
        </g>
        <g transform="matrix(34.9131,0,0,34.9131,366.085,843.038)">
            <path d="M0.346,-0.234L0.258,-0.234C0.215,-0.234 0.183,-0.226 0.162,-0.209C0.141,-0.192 0.13,-0.171 0.13,-0.146C0.13,-0.121 0.138,-0.1 0.155,-0.085C0.172,-0.069 0.196,-0.061 0.228,-0.061C0.264,-0.061 0.293,-0.071 0.314,-0.092C0.335,-0.112 0.346,-0.138 0.346,-0.169L0.346,-0.234ZM0.084,-0.401L0.084,-0.48C0.122,-0.503 0.172,-0.515 0.234,-0.515C0.361,-0.515 0.425,-0.45 0.425,-0.321L0.425,0L0.347,0L0.347,-0.06C0.321,-0.017 0.274,0.005 0.205,0.005C0.158,0.005 0.119,-0.009 0.091,-0.037C0.062,-0.065 0.047,-0.1 0.047,-0.143C0.047,-0.192 0.066,-0.23 0.102,-0.257C0.14,-0.283 0.19,-0.297 0.254,-0.297L0.346,-0.297L0.346,-0.323C0.346,-0.363 0.337,-0.393 0.319,-0.413C0.301,-0.434 0.271,-0.444 0.228,-0.444C0.174,-0.444 0.126,-0.43 0.084,-0.401Z" style="fill:rgb(0,81,65);fill-rule:nonzero;"/>
        </g>
        <g transform="matrix(34.9131,0,0,34.9131,383.262,843.038)">
            <path d="M0.388,-0.507L0.467,-0.507L0.467,0L0.388,0L0.388,-0.088C0.361,-0.025 0.308,0.006 0.229,0.006C0.179,0.006 0.14,-0.009 0.111,-0.039C0.082,-0.068 0.067,-0.108 0.067,-0.158L0.067,-0.507L0.146,-0.507L0.146,-0.178C0.146,-0.141 0.155,-0.113 0.174,-0.094C0.193,-0.075 0.218,-0.065 0.25,-0.065C0.292,-0.065 0.326,-0.08 0.35,-0.109C0.376,-0.138 0.388,-0.178 0.388,-0.228L0.388,-0.507Z" style="fill:rgb(0,81,65);fill-rule:nonzero;"/>
        </g>
        <g transform="matrix(34.9131,0,0,34.9131,402.115,843.038)">
            <path d="M0.169,-0.585L0.169,-0.389C0.199,-0.396 0.225,-0.399 0.247,-0.399C0.314,-0.399 0.367,-0.381 0.406,-0.346C0.445,-0.311 0.464,-0.263 0.464,-0.204C0.464,-0.139 0.443,-0.088 0.401,-0.05C0.358,-0.011 0.3,0.008 0.227,0.008C0.161,0.008 0.105,-0.003 0.059,-0.026L0.059,-0.104C0.102,-0.079 0.153,-0.066 0.214,-0.066C0.326,-0.066 0.382,-0.113 0.382,-0.207C0.382,-0.245 0.369,-0.275 0.343,-0.296C0.317,-0.317 0.283,-0.327 0.242,-0.327C0.193,-0.327 0.143,-0.315 0.091,-0.292L0.091,-0.654L0.419,-0.654L0.419,-0.585L0.169,-0.585Z" style="fill:rgb(0,81,65);fill-rule:nonzero;"/>
        </g>
        <g transform="matrix(34.9131,0,0,34.9131,419.886,843.038)">
            <path d="M0.058,-0.547L0.058,-0.624C0.097,-0.649 0.141,-0.661 0.192,-0.661C0.257,-0.661 0.307,-0.645 0.343,-0.612C0.378,-0.579 0.396,-0.538 0.396,-0.489C0.396,-0.454 0.387,-0.422 0.37,-0.394C0.352,-0.366 0.326,-0.345 0.291,-0.331C0.329,-0.322 0.359,-0.305 0.382,-0.279C0.404,-0.252 0.415,-0.219 0.415,-0.18C0.415,-0.127 0.396,-0.082 0.359,-0.047C0.322,-0.012 0.269,0.006 0.201,0.006C0.138,0.006 0.084,-0.005 0.038,-0.027L0.038,-0.106C0.087,-0.08 0.141,-0.067 0.199,-0.067C0.242,-0.067 0.275,-0.078 0.299,-0.1C0.322,-0.122 0.334,-0.151 0.334,-0.186C0.334,-0.221 0.321,-0.249 0.295,-0.268C0.268,-0.286 0.23,-0.296 0.181,-0.296L0.139,-0.296L0.139,-0.365L0.181,-0.365C0.218,-0.365 0.25,-0.376 0.276,-0.397C0.301,-0.418 0.314,-0.446 0.314,-0.481C0.314,-0.516 0.303,-0.543 0.281,-0.561C0.259,-0.579 0.229,-0.588 0.19,-0.588C0.144,-0.588 0.1,-0.574 0.058,-0.547Z" style="fill:rgb(0,81,65);fill-rule:nonzero;"/>
        </g>
        <g transform="matrix(34.9131,0,0,34.9131,436.155,843.038)">
            <rect x="0.028" y="0.031" width="0.505" height="0.069" style="fill:rgb(0,81,65);fill-rule:nonzero;"/>
        </g>
        <g transform="matrix(34.9131,0,0,34.9131,455.742,843.038)">
            <path d="M0.151,-0.507L0.151,-0.425C0.179,-0.484 0.227,-0.514 0.294,-0.514C0.372,-0.514 0.421,-0.481 0.442,-0.415C0.457,-0.447 0.477,-0.471 0.503,-0.489C0.53,-0.505 0.559,-0.514 0.592,-0.514C0.645,-0.514 0.684,-0.499 0.711,-0.469C0.738,-0.439 0.751,-0.399 0.751,-0.348L0.751,0L0.672,0L0.672,-0.328C0.672,-0.405 0.64,-0.443 0.575,-0.443C0.543,-0.443 0.514,-0.429 0.489,-0.4C0.464,-0.371 0.451,-0.33 0.451,-0.277L0.451,0L0.372,0L0.372,-0.328C0.372,-0.405 0.34,-0.443 0.275,-0.443C0.243,-0.443 0.214,-0.429 0.189,-0.4C0.164,-0.371 0.151,-0.33 0.151,-0.277L0.151,0L0.073,0L0.073,-0.507L0.151,-0.507Z" style="fill:rgb(0,81,65);fill-rule:nonzero;"/>
        </g>
        <g transform="matrix(34.9131,0,0,34.9131,484.3,843.038)">
            <path d="M0.043,-0.329C0.043,-0.432 0.064,-0.513 0.106,-0.573C0.147,-0.632 0.202,-0.662 0.27,-0.662C0.341,-0.662 0.397,-0.632 0.439,-0.573C0.48,-0.513 0.501,-0.432 0.501,-0.329C0.501,-0.227 0.481,-0.145 0.441,-0.084C0.401,-0.023 0.344,0.008 0.27,0.008C0.201,0.008 0.146,-0.023 0.105,-0.084C0.064,-0.145 0.043,-0.227 0.043,-0.329ZM0.167,-0.52C0.138,-0.474 0.124,-0.411 0.124,-0.329C0.124,-0.247 0.138,-0.183 0.166,-0.137C0.194,-0.09 0.229,-0.067 0.27,-0.067C0.316,-0.067 0.353,-0.09 0.38,-0.135C0.406,-0.18 0.42,-0.245 0.42,-0.329C0.42,-0.412 0.406,-0.476 0.378,-0.521C0.349,-0.565 0.313,-0.587 0.27,-0.587C0.23,-0.587 0.196,-0.565 0.167,-0.52Z" style="fill:rgb(0,81,65);fill-rule:nonzero;"/>
        </g>
        <g transform="matrix(34.9131,0,0,34.9131,503.293,843.038)">
            <path d="M0.266,-0.064C0.307,-0.064 0.343,-0.079 0.372,-0.11C0.401,-0.141 0.415,-0.19 0.415,-0.257C0.415,-0.321 0.4,-0.368 0.37,-0.398C0.34,-0.428 0.307,-0.443 0.271,-0.443C0.229,-0.443 0.194,-0.426 0.167,-0.393C0.139,-0.359 0.125,-0.311 0.125,-0.248C0.125,-0.193 0.138,-0.149 0.165,-0.115C0.192,-0.081 0.225,-0.064 0.266,-0.064ZM0.415,-0.707L0.494,-0.707L0.494,0L0.415,0L0.415,-0.075C0.379,-0.02 0.327,0.008 0.259,0.008C0.192,0.008 0.139,-0.017 0.101,-0.067C0.062,-0.117 0.043,-0.178 0.043,-0.249C0.043,-0.328 0.063,-0.393 0.104,-0.442C0.145,-0.491 0.197,-0.515 0.261,-0.515C0.327,-0.515 0.378,-0.487 0.415,-0.43L0.415,-0.707Z" style="fill:rgb(0,81,65);fill-rule:nonzero;"/>
        </g>
        <g transform="matrix(34.9131,0,0,34.9131,523.089,843.038)">
            <path d="M0.266,-0.064C0.307,-0.064 0.343,-0.079 0.372,-0.11C0.401,-0.141 0.415,-0.19 0.415,-0.257C0.415,-0.321 0.4,-0.368 0.37,-0.398C0.34,-0.428 0.307,-0.443 0.271,-0.443C0.229,-0.443 0.194,-0.426 0.167,-0.393C0.139,-0.359 0.125,-0.311 0.125,-0.248C0.125,-0.193 0.138,-0.149 0.165,-0.115C0.192,-0.081 0.225,-0.064 0.266,-0.064ZM0.415,-0.707L0.494,-0.707L0.494,0L0.415,0L0.415,-0.075C0.379,-0.02 0.327,0.008 0.259,0.008C0.192,0.008 0.139,-0.017 0.101,-0.067C0.062,-0.117 0.043,-0.178 0.043,-0.249C0.043,-0.328 0.063,-0.393 0.104,-0.442C0.145,-0.491 0.197,-0.515 0.261,-0.515C0.327,-0.515 0.378,-0.487 0.415,-0.43L0.415,-0.707Z" style="fill:rgb(0,81,65);fill-rule:nonzero;"/>
        </g>
        <g transform="matrix(34.9131,0,0,34.9131,542.885,843.038)">
            <path d="M0.018,-0.475L0.018,-0.56L0.173,-0.654L0.247,-0.654L0.247,0L0.169,0L0.169,-0.568L0.018,-0.475Z" style="fill:rgb(0,81,65);fill-rule:nonzero;"/>
        </g>
        <g transform="matrix(34.9131,0,0,34.9131,554.162,843.038)">
            <path d="M0.151,-0.507L0.151,-0.419C0.181,-0.482 0.234,-0.514 0.311,-0.514C0.36,-0.514 0.4,-0.499 0.429,-0.469C0.458,-0.439 0.473,-0.399 0.473,-0.349L0.473,0L0.394,0L0.394,-0.328C0.394,-0.365 0.385,-0.394 0.366,-0.413C0.346,-0.433 0.322,-0.443 0.291,-0.443C0.253,-0.443 0.22,-0.428 0.193,-0.399C0.165,-0.37 0.151,-0.329 0.151,-0.277L0.151,0L0.073,0L0.073,-0.507L0.151,-0.507Z" style="fill:rgb(0,81,65);fill-rule:nonzero;"/>
        </g>
        <g transform="matrix(34.9131,0,0,34.9131,573.015,843.038)">
            <path d="M0.263,-0.083C0.3,-0.083 0.332,-0.097 0.361,-0.126C0.389,-0.154 0.403,-0.196 0.403,-0.252C0.403,-0.317 0.389,-0.365 0.362,-0.396C0.335,-0.427 0.303,-0.443 0.267,-0.443C0.224,-0.443 0.189,-0.426 0.164,-0.392C0.139,-0.357 0.126,-0.312 0.126,-0.257C0.126,-0.2 0.14,-0.157 0.168,-0.128C0.196,-0.098 0.228,-0.083 0.263,-0.083ZM0.403,-0.507L0.482,-0.507L0.482,-0.041C0.482,0.036 0.461,0.094 0.418,0.133C0.375,0.172 0.32,0.192 0.253,0.192C0.192,0.192 0.139,0.182 0.096,0.161L0.096,0.082C0.139,0.107 0.189,0.119 0.246,0.119C0.295,0.119 0.333,0.106 0.361,0.08C0.389,0.054 0.403,0.013 0.403,-0.042L0.403,-0.099C0.37,-0.042 0.32,-0.013 0.254,-0.013C0.196,-0.013 0.147,-0.034 0.106,-0.077C0.065,-0.12 0.044,-0.179 0.044,-0.255C0.044,-0.33 0.063,-0.392 0.101,-0.441C0.139,-0.49 0.189,-0.514 0.25,-0.514C0.319,-0.514 0.37,-0.484 0.403,-0.423L0.403,-0.507Z" style="fill:rgb(0,81,65);fill-rule:nonzero;"/>
        </g>
        <g transform="matrix(34.9131,0,0,34.9131,592.182,843.038)">
            <rect x="0.028" y="0.031" width="0.505" height="0.069" style="fill:rgb(0,81,65);fill-rule:nonzero;"/>
        </g>
        <g transform="matrix(34.9131,0,0,34.9131,611.768,843.038)">
            <path d="M0.263,-0.083C0.3,-0.083 0.332,-0.097 0.361,-0.126C0.389,-0.154 0.403,-0.196 0.403,-0.252C0.403,-0.317 0.389,-0.365 0.362,-0.396C0.335,-0.427 0.303,-0.443 0.267,-0.443C0.224,-0.443 0.189,-0.426 0.164,-0.392C0.139,-0.357 0.126,-0.312 0.126,-0.257C0.126,-0.2 0.14,-0.157 0.168,-0.128C0.196,-0.098 0.228,-0.083 0.263,-0.083ZM0.403,-0.507L0.482,-0.507L0.482,-0.041C0.482,0.036 0.461,0.094 0.418,0.133C0.375,0.172 0.32,0.192 0.253,0.192C0.192,0.192 0.139,0.182 0.096,0.161L0.096,0.082C0.139,0.107 0.189,0.119 0.246,0.119C0.295,0.119 0.333,0.106 0.361,0.08C0.389,0.054 0.403,0.013 0.403,-0.042L0.403,-0.099C0.37,-0.042 0.32,-0.013 0.254,-0.013C0.196,-0.013 0.147,-0.034 0.106,-0.077C0.065,-0.12 0.044,-0.179 0.044,-0.255C0.044,-0.33 0.063,-0.392 0.101,-0.441C0.139,-0.49 0.189,-0.514 0.25,-0.514C0.319,-0.514 0.37,-0.484 0.403,-0.423L0.403,-0.507Z" style="fill:rgb(0,81,65);fill-rule:nonzero;"/>
        </g>
        <g transform="matrix(34.9131,0,0,34.9131,630.935,843.038)">
            <rect x="0.028" y="0.031" width="0.505" height="0.069" style="fill:rgb(0,81,65);fill-rule:nonzero;"/>
        </g>
        <g transform="matrix(34.9131,0,0,34.9131,650.522,843.038)">
            <path d="M0.058,-0.547L0.058,-0.624C0.097,-0.649 0.141,-0.661 0.192,-0.661C0.257,-0.661 0.307,-0.645 0.343,-0.612C0.378,-0.579 0.396,-0.538 0.396,-0.489C0.396,-0.454 0.387,-0.422 0.37,-0.394C0.352,-0.366 0.326,-0.345 0.291,-0.331C0.329,-0.322 0.359,-0.305 0.382,-0.279C0.404,-0.252 0.415,-0.219 0.415,-0.18C0.415,-0.127 0.396,-0.082 0.359,-0.047C0.322,-0.012 0.269,0.006 0.201,0.006C0.138,0.006 0.084,-0.005 0.038,-0.027L0.038,-0.106C0.087,-0.08 0.141,-0.067 0.199,-0.067C0.242,-0.067 0.275,-0.078 0.299,-0.1C0.322,-0.122 0.334,-0.151 0.334,-0.186C0.334,-0.221 0.321,-0.249 0.295,-0.268C0.268,-0.286 0.23,-0.296 0.181,-0.296L0.139,-0.296L0.139,-0.365L0.181,-0.365C0.218,-0.365 0.25,-0.376 0.276,-0.397C0.301,-0.418 0.314,-0.446 0.314,-0.481C0.314,-0.516 0.303,-0.543 0.281,-0.561C0.259,-0.579 0.229,-0.588 0.19,-0.588C0.144,-0.588 0.1,-0.574 0.058,-0.547Z" style="fill:rgb(0,81,65);fill-rule:nonzero;"/>
        </g>
        <g transform="matrix(34.9131,0,0,34.9131,666.791,843.038)">
            <rect x="0.077" y="-0.707" width="0.079" height="0.707" style="fill:rgb(0,81,65);fill-rule:nonzero;"/>
        </g>
        <g transform="matrix(34.9131,0,0,34.9131,674.926,843.038)">
            <path d="M0.058,-0.547L0.058,-0.624C0.097,-0.649 0.141,-0.661 0.192,-0.661C0.257,-0.661 0.307,-0.645 0.343,-0.612C0.378,-0.579 0.396,-0.538 0.396,-0.489C0.396,-0.454 0.387,-0.422 0.37,-0.394C0.352,-0.366 0.326,-0.345 0.291,-0.331C0.329,-0.322 0.359,-0.305 0.382,-0.279C0.404,-0.252 0.415,-0.219 0.415,-0.18C0.415,-0.127 0.396,-0.082 0.359,-0.047C0.322,-0.012 0.269,0.006 0.201,0.006C0.138,0.006 0.084,-0.005 0.038,-0.027L0.038,-0.106C0.087,-0.08 0.141,-0.067 0.199,-0.067C0.242,-0.067 0.275,-0.078 0.299,-0.1C0.322,-0.122 0.334,-0.151 0.334,-0.186C0.334,-0.221 0.321,-0.249 0.295,-0.268C0.268,-0.286 0.23,-0.296 0.181,-0.296L0.139,-0.296L0.139,-0.365L0.181,-0.365C0.218,-0.365 0.25,-0.376 0.276,-0.397C0.301,-0.418 0.314,-0.446 0.314,-0.481C0.314,-0.516 0.303,-0.543 0.281,-0.561C0.259,-0.579 0.229,-0.588 0.19,-0.588C0.144,-0.588 0.1,-0.574 0.058,-0.547Z" style="fill:rgb(0,81,65);fill-rule:nonzero;"/>
        </g>
        <g transform="matrix(34.9131,0,0,34.9131,691.195,843.038)">
            <path d="M0.151,-0.507L0.151,-0.425C0.179,-0.484 0.227,-0.514 0.294,-0.514C0.372,-0.514 0.421,-0.481 0.442,-0.415C0.457,-0.447 0.477,-0.471 0.503,-0.489C0.53,-0.505 0.559,-0.514 0.592,-0.514C0.645,-0.514 0.684,-0.499 0.711,-0.469C0.738,-0.439 0.751,-0.399 0.751,-0.348L0.751,0L0.672,0L0.672,-0.328C0.672,-0.405 0.64,-0.443 0.575,-0.443C0.543,-0.443 0.514,-0.429 0.489,-0.4C0.464,-0.371 0.451,-0.33 0.451,-0.277L0.451,0L0.372,0L0.372,-0.328C0.372,-0.405 0.34,-0.443 0.275,-0.443C0.243,-0.443 0.214,-0.429 0.189,-0.4C0.164,-0.371 0.151,-0.33 0.151,-0.277L0.151,0L0.073,0L0.073,-0.507L0.151,-0.507Z" style="fill:rgb(0,81,65);fill-rule:nonzero;"/>
        </g>
        <g transform="matrix(34.9131,0,0,34.9131,719.754,843.038)">
            <path d="M0.058,-0.547L0.058,-0.624C0.097,-0.649 0.141,-0.661 0.192,-0.661C0.257,-0.661 0.307,-0.645 0.343,-0.612C0.378,-0.579 0.396,-0.538 0.396,-0.489C0.396,-0.454 0.387,-0.422 0.37,-0.394C0.352,-0.366 0.326,-0.345 0.291,-0.331C0.329,-0.322 0.359,-0.305 0.382,-0.279C0.404,-0.252 0.415,-0.219 0.415,-0.18C0.415,-0.127 0.396,-0.082 0.359,-0.047C0.322,-0.012 0.269,0.006 0.201,0.006C0.138,0.006 0.084,-0.005 0.038,-0.027L0.038,-0.106C0.087,-0.08 0.141,-0.067 0.199,-0.067C0.242,-0.067 0.275,-0.078 0.299,-0.1C0.322,-0.122 0.334,-0.151 0.334,-0.186C0.334,-0.221 0.321,-0.249 0.295,-0.268C0.268,-0.286 0.23,-0.296 0.181,-0.296L0.139,-0.296L0.139,-0.365L0.181,-0.365C0.218,-0.365 0.25,-0.376 0.276,-0.397C0.301,-0.418 0.314,-0.446 0.314,-0.481C0.314,-0.516 0.303,-0.543 0.281,-0.561C0.259,-0.579 0.229,-0.588 0.19,-0.588C0.144,-0.588 0.1,-0.574 0.058,-0.547Z" style="fill:rgb(0,81,65);fill-rule:nonzero;"/>
        </g>
        <g transform="matrix(34.9131,0,0,34.9131,736.024,843.038)">
            <path d="M0.151,-0.507L0.151,-0.419C0.181,-0.482 0.234,-0.514 0.311,-0.514C0.36,-0.514 0.4,-0.499 0.429,-0.469C0.458,-0.439 0.473,-0.399 0.473,-0.349L0.473,0L0.394,0L0.394,-0.328C0.394,-0.365 0.385,-0.394 0.366,-0.413C0.346,-0.433 0.322,-0.443 0.291,-0.443C0.253,-0.443 0.22,-0.428 0.193,-0.399C0.165,-0.37 0.151,-0.329 0.151,-0.277L0.151,0L0.073,0L0.073,-0.507L0.151,-0.507Z" style="fill:rgb(0,81,65);fill-rule:nonzero;"/>
        </g>
        <g transform="matrix(34.9131,0,0,34.9131,754.877,843.038)">
            <path d="M0.182,-0.443L0.182,-0.146C0.182,-0.092 0.207,-0.065 0.258,-0.065C0.284,-0.065 0.307,-0.073 0.327,-0.088L0.327,-0.013C0.305,-0.001 0.28,0.005 0.253,0.005C0.153,0.005 0.103,-0.046 0.103,-0.148L0.103,-0.443L0.022,-0.443L0.022,-0.507L0.103,-0.507L0.103,-0.633L0.182,-0.633L0.182,-0.507L0.322,-0.507L0.322,-0.443L0.182,-0.443Z" style="fill:rgb(0,81,65);fill-rule:nonzero;"/>
        </g>
        <g transform="matrix(34.9131,0,0,34.9131,767.76,843.038)">
            <path d="M0.169,-0.585L0.169,-0.389C0.199,-0.396 0.225,-0.399 0.247,-0.399C0.314,-0.399 0.367,-0.381 0.406,-0.346C0.445,-0.311 0.464,-0.263 0.464,-0.204C0.464,-0.139 0.443,-0.088 0.401,-0.05C0.358,-0.011 0.3,0.008 0.227,0.008C0.161,0.008 0.105,-0.003 0.059,-0.026L0.059,-0.104C0.102,-0.079 0.153,-0.066 0.214,-0.066C0.326,-0.066 0.382,-0.113 0.382,-0.207C0.382,-0.245 0.369,-0.275 0.343,-0.296C0.317,-0.317 0.283,-0.327 0.242,-0.327C0.193,-0.327 0.143,-0.315 0.091,-0.292L0.091,-0.654L0.419,-0.654L0.419,-0.585L0.169,-0.585Z" style="fill:rgb(0,81,65);fill-rule:nonzero;"/>
        </g>
        <g transform="matrix(34.9131,0,0,34.9131,785.53,843.038)">
            <rect x="0.028" y="0.031" width="0.505" height="0.069" style="fill:rgb(0,81,65);fill-rule:nonzero;"/>
        </g>
        <g transform="matrix(34.9131,0,0,34.9131,805.117,843.038)">
            <path d="M0.181,0L0.025,-0.507L0.109,-0.507L0.158,-0.339C0.175,-0.28 0.19,-0.229 0.202,-0.186C0.213,-0.142 0.221,-0.113 0.224,-0.098L0.229,-0.077C0.239,-0.12 0.263,-0.207 0.302,-0.34L0.35,-0.507L0.434,-0.507L0.483,-0.34L0.558,-0.076C0.567,-0.115 0.593,-0.203 0.635,-0.34L0.686,-0.507L0.767,-0.507L0.607,0L0.51,0L0.462,-0.166L0.392,-0.419C0.382,-0.376 0.359,-0.292 0.324,-0.166L0.278,0L0.181,0Z" style="fill:rgb(0,81,65);fill-rule:nonzero;"/>
        </g>
        <g transform="matrix(34.9131,0,0,34.9131,832.768,843.038)">
            <path d="M0.018,-0.475L0.018,-0.56L0.173,-0.654L0.247,-0.654L0.247,0L0.169,0L0.169,-0.568L0.018,-0.475Z" style="fill:rgb(0,81,65);fill-rule:nonzero;"/>
        </g>
        <g transform="matrix(34.9131,0,0,34.9131,844.045,843.038)">
            <path d="M0.182,-0.443L0.182,-0.146C0.182,-0.092 0.207,-0.065 0.258,-0.065C0.284,-0.065 0.307,-0.073 0.327,-0.088L0.327,-0.013C0.305,-0.001 0.28,0.005 0.253,0.005C0.153,0.005 0.103,-0.046 0.103,-0.148L0.103,-0.443L0.022,-0.443L0.022,-0.507L0.103,-0.507L0.103,-0.633L0.182,-0.633L0.182,-0.507L0.322,-0.507L0.322,-0.443L0.182,-0.443Z" style="fill:rgb(0,81,65);fill-rule:nonzero;"/>
        </g>
        <g transform="matrix(34.9131,0,0,34.9131,856.928,843.038)">
            <path d="M0.151,-0.707L0.151,-0.419C0.181,-0.482 0.234,-0.514 0.311,-0.514C0.36,-0.514 0.399,-0.499 0.429,-0.469C0.458,-0.439 0.473,-0.398 0.473,-0.347L0.473,0L0.394,0L0.394,-0.328C0.394,-0.365 0.385,-0.393 0.366,-0.413C0.346,-0.433 0.322,-0.443 0.291,-0.443C0.254,-0.443 0.221,-0.429 0.193,-0.4C0.165,-0.371 0.151,-0.33 0.151,-0.277L0.151,0L0.073,0L0.073,-0.707L0.151,-0.707Z" style="fill:rgb(0,81,65);fill-rule:nonzero;"/>
        </g>
        <g transform="matrix(34.9131,0,0,34.9131,875.781,843.038)">
            <path d="M0.043,-0.329C0.043,-0.432 0.064,-0.513 0.106,-0.573C0.147,-0.632 0.202,-0.662 0.27,-0.662C0.341,-0.662 0.397,-0.632 0.439,-0.573C0.48,-0.513 0.501,-0.432 0.501,-0.329C0.501,-0.227 0.481,-0.145 0.441,-0.084C0.401,-0.023 0.344,0.008 0.27,0.008C0.201,0.008 0.146,-0.023 0.105,-0.084C0.064,-0.145 0.043,-0.227 0.043,-0.329ZM0.167,-0.52C0.138,-0.474 0.124,-0.411 0.124,-0.329C0.124,-0.247 0.138,-0.183 0.166,-0.137C0.194,-0.09 0.229,-0.067 0.27,-0.067C0.316,-0.067 0.353,-0.09 0.38,-0.135C0.406,-0.18 0.42,-0.245 0.42,-0.329C0.42,-0.412 0.406,-0.476 0.378,-0.521C0.349,-0.565 0.313,-0.587 0.27,-0.587C0.23,-0.587 0.196,-0.565 0.167,-0.52Z" style="fill:rgb(0,81,65);fill-rule:nonzero;"/>
        </g>
        <g transform="matrix(34.9131,0,0,34.9131,894.774,843.038)">
            <path d="M0.388,-0.507L0.467,-0.507L0.467,0L0.388,0L0.388,-0.088C0.361,-0.025 0.308,0.006 0.229,0.006C0.179,0.006 0.14,-0.009 0.111,-0.039C0.082,-0.068 0.067,-0.108 0.067,-0.158L0.067,-0.507L0.146,-0.507L0.146,-0.178C0.146,-0.141 0.155,-0.113 0.174,-0.094C0.193,-0.075 0.218,-0.065 0.25,-0.065C0.292,-0.065 0.326,-0.08 0.35,-0.109C0.376,-0.138 0.388,-0.178 0.388,-0.228L0.388,-0.507Z" style="fill:rgb(0,81,65);fill-rule:nonzero;"/>
        </g>
        <g transform="matrix(34.9131,0,0,34.9131,913.627,843.038)">
            <path d="M0.182,-0.443L0.182,-0.146C0.182,-0.092 0.207,-0.065 0.258,-0.065C0.284,-0.065 0.307,-0.073 0.327,-0.088L0.327,-0.013C0.305,-0.001 0.28,0.005 0.253,0.005C0.153,0.005 0.103,-0.046 0.103,-0.148L0.103,-0.443L0.022,-0.443L0.022,-0.507L0.103,-0.507L0.103,-0.633L0.182,-0.633L0.182,-0.507L0.322,-0.507L0.322,-0.443L0.182,-0.443Z" style="fill:rgb(0,81,65);fill-rule:nonzero;"/>
        </g>
        <g transform="matrix(34.9131,0,0,34.9131,926.509,843.038)">
            <rect x="0.028" y="0.031" width="0.505" height="0.069" style="fill:rgb(0,81,65);fill-rule:nonzero;"/>
        </g>
        <g transform="matrix(34.9131,0,0,34.9131,946.096,843.038)">
            <path d="M0.125,-0.251C0.126,-0.196 0.142,-0.151 0.175,-0.115C0.208,-0.078 0.254,-0.06 0.314,-0.06C0.353,-0.06 0.389,-0.071 0.422,-0.093L0.422,-0.018C0.39,0.001 0.351,0.011 0.304,0.011C0.224,0.011 0.161,-0.015 0.114,-0.066C0.067,-0.117 0.043,-0.179 0.043,-0.252C0.043,-0.324 0.067,-0.386 0.114,-0.438C0.161,-0.49 0.225,-0.516 0.306,-0.516C0.349,-0.516 0.388,-0.507 0.422,-0.488L0.422,-0.413C0.391,-0.434 0.355,-0.444 0.314,-0.444C0.257,-0.444 0.211,-0.426 0.177,-0.389C0.142,-0.352 0.125,-0.306 0.125,-0.251Z" style="fill:rgb(0,81,65);fill-rule:nonzero;"/>
        </g>
        <g transform="matrix(34.9131,0,0,34.9131,962.54,843.038)">
            <path d="M0.043,-0.329C0.043,-0.432 0.064,-0.513 0.106,-0.573C0.147,-0.632 0.202,-0.662 0.27,-0.662C0.341,-0.662 0.397,-0.632 0.439,-0.573C0.48,-0.513 0.501,-0.432 0.501,-0.329C0.501,-0.227 0.481,-0.145 0.441,-0.084C0.401,-0.023 0.344,0.008 0.27,0.008C0.201,0.008 0.146,-0.023 0.105,-0.084C0.064,-0.145 0.043,-0.227 0.043,-0.329ZM0.167,-0.52C0.138,-0.474 0.124,-0.411 0.124,-0.329C0.124,-0.247 0.138,-0.183 0.166,-0.137C0.194,-0.09 0.229,-0.067 0.27,-0.067C0.316,-0.067 0.353,-0.09 0.38,-0.135C0.406,-0.18 0.42,-0.245 0.42,-0.329C0.42,-0.412 0.406,-0.476 0.378,-0.521C0.349,-0.565 0.313,-0.587 0.27,-0.587C0.23,-0.587 0.196,-0.565 0.167,-0.52Z" style="fill:rgb(0,81,65);fill-rule:nonzero;"/>
        </g>
        <g transform="matrix(34.9131,0,0,34.9131,981.533,843.038)">
            <path d="M0.266,-0.064C0.307,-0.064 0.343,-0.079 0.372,-0.11C0.401,-0.141 0.415,-0.19 0.415,-0.257C0.415,-0.321 0.4,-0.368 0.37,-0.398C0.34,-0.428 0.307,-0.443 0.271,-0.443C0.229,-0.443 0.194,-0.426 0.167,-0.393C0.139,-0.359 0.125,-0.311 0.125,-0.248C0.125,-0.193 0.138,-0.149 0.165,-0.115C0.192,-0.081 0.225,-0.064 0.266,-0.064ZM0.415,-0.707L0.494,-0.707L0.494,0L0.415,0L0.415,-0.075C0.379,-0.02 0.327,0.008 0.259,0.008C0.192,0.008 0.139,-0.017 0.101,-0.067C0.062,-0.117 0.043,-0.178 0.043,-0.249C0.043,-0.328 0.063,-0.393 0.104,-0.442C0.145,-0.491 0.197,-0.515 0.261,-0.515C0.327,-0.515 0.378,-0.487 0.415,-0.43L0.415,-0.707Z" style="fill:rgb(0,81,65);fill-rule:nonzero;"/>
        </g>
        <g transform="matrix(34.9131,0,0,34.9131,1001.33,843.038)">
            <path d="M0.018,-0.475L0.018,-0.56L0.173,-0.654L0.247,-0.654L0.247,0L0.169,0L0.169,-0.568L0.018,-0.475Z" style="fill:rgb(0,81,65);fill-rule:nonzero;"/>
        </g>
        <g transform="matrix(34.9131,0,0,34.9131,1012.61,843.038)">
            <path d="M0.151,-0.507L0.151,-0.419C0.181,-0.482 0.234,-0.514 0.311,-0.514C0.36,-0.514 0.4,-0.499 0.429,-0.469C0.458,-0.439 0.473,-0.399 0.473,-0.349L0.473,0L0.394,0L0.394,-0.328C0.394,-0.365 0.385,-0.394 0.366,-0.413C0.346,-0.433 0.322,-0.443 0.291,-0.443C0.253,-0.443 0.22,-0.428 0.193,-0.399C0.165,-0.37 0.151,-0.329 0.151,-0.277L0.151,0L0.073,0L0.073,-0.507L0.151,-0.507Z" style="fill:rgb(0,81,65);fill-rule:nonzero;"/>
        </g>
        <g transform="matrix(34.9131,0,0,34.9131,1031.46,843.038)">
            <path d="M0.263,-0.083C0.3,-0.083 0.332,-0.097 0.361,-0.126C0.389,-0.154 0.403,-0.196 0.403,-0.252C0.403,-0.317 0.389,-0.365 0.362,-0.396C0.335,-0.427 0.303,-0.443 0.267,-0.443C0.224,-0.443 0.189,-0.426 0.164,-0.392C0.139,-0.357 0.126,-0.312 0.126,-0.257C0.126,-0.2 0.14,-0.157 0.168,-0.128C0.196,-0.098 0.228,-0.083 0.263,-0.083ZM0.403,-0.507L0.482,-0.507L0.482,-0.041C0.482,0.036 0.461,0.094 0.418,0.133C0.375,0.172 0.32,0.192 0.253,0.192C0.192,0.192 0.139,0.182 0.096,0.161L0.096,0.082C0.139,0.107 0.189,0.119 0.246,0.119C0.295,0.119 0.333,0.106 0.361,0.08C0.389,0.054 0.403,0.013 0.403,-0.042L0.403,-0.099C0.37,-0.042 0.32,-0.013 0.254,-0.013C0.196,-0.013 0.147,-0.034 0.106,-0.077C0.065,-0.12 0.044,-0.179 0.044,-0.255C0.044,-0.33 0.063,-0.392 0.101,-0.441C0.139,-0.49 0.189,-0.514 0.25,-0.514C0.319,-0.514 0.37,-0.484 0.403,-0.423L0.403,-0.507Z" style="fill:rgb(0,81,65);fill-rule:nonzero;"/>
        </g>
        <g transform="matrix(34.9131,0,0,34.9131,1050.63,843.038)">
            <rect x="0.028" y="0.031" width="0.505" height="0.069" style="fill:rgb(0,81,65);fill-rule:nonzero;"/>
        </g>
        <g transform="matrix(34.9131,0,0,34.9131,1070.21,843.038)">
            <path d="M0.018,-0.475L0.018,-0.56L0.173,-0.654L0.247,-0.654L0.247,0L0.169,0L0.169,-0.568L0.018,-0.475Z" style="fill:rgb(0,81,65);fill-rule:nonzero;"/>
        </g>
        <g transform="matrix(34.9131,0,0,34.9131,1081.49,843.038)">
            <path d="M0.169,-0.585L0.169,-0.389C0.199,-0.396 0.225,-0.399 0.247,-0.399C0.314,-0.399 0.367,-0.381 0.406,-0.346C0.445,-0.311 0.464,-0.263 0.464,-0.204C0.464,-0.139 0.443,-0.088 0.401,-0.05C0.358,-0.011 0.3,0.008 0.227,0.008C0.161,0.008 0.105,-0.003 0.059,-0.026L0.059,-0.104C0.102,-0.079 0.153,-0.066 0.214,-0.066C0.326,-0.066 0.382,-0.113 0.382,-0.207C0.382,-0.245 0.369,-0.275 0.343,-0.296C0.317,-0.317 0.283,-0.327 0.242,-0.327C0.193,-0.327 0.143,-0.315 0.091,-0.292L0.091,-0.654L0.419,-0.654L0.419,-0.585L0.169,-0.585Z" style="fill:rgb(0,81,65);fill-rule:nonzero;"/>
        </g>
        <g transform="matrix(34.9131,0,0,34.9131,1099.26,843.038)">
            <rect x="0.028" y="0.031" width="0.505" height="0.069" style="fill:rgb(0,81,65);fill-rule:nonzero;"/>
        </g>
        <g transform="matrix(34.9131,0,0,34.9131,1118.85,843.038)">
            <path d="M0.349,-0.49L0.349,-0.415C0.318,-0.434 0.276,-0.443 0.223,-0.443C0.196,-0.443 0.175,-0.437 0.16,-0.425C0.144,-0.412 0.136,-0.396 0.136,-0.377C0.136,-0.365 0.138,-0.355 0.143,-0.345C0.148,-0.337 0.157,-0.328 0.171,-0.319C0.184,-0.31 0.194,-0.305 0.201,-0.302C0.207,-0.299 0.221,-0.292 0.242,-0.283C0.285,-0.266 0.318,-0.246 0.342,-0.224C0.366,-0.202 0.378,-0.172 0.378,-0.135C0.378,-0.092 0.363,-0.057 0.333,-0.032C0.302,-0.007 0.261,0.006 0.208,0.006C0.147,0.006 0.097,-0.004 0.059,-0.025L0.059,-0.102C0.104,-0.075 0.152,-0.062 0.203,-0.062C0.234,-0.062 0.257,-0.068 0.273,-0.08C0.289,-0.092 0.297,-0.108 0.297,-0.129C0.297,-0.153 0.288,-0.172 0.271,-0.185C0.253,-0.198 0.223,-0.213 0.182,-0.23C0.144,-0.245 0.114,-0.263 0.091,-0.285C0.068,-0.307 0.056,-0.337 0.056,-0.374C0.056,-0.416 0.072,-0.45 0.103,-0.474C0.135,-0.5 0.175,-0.512 0.222,-0.512C0.275,-0.512 0.317,-0.505 0.349,-0.49Z" style="fill:rgb(0,81,65);fill-rule:nonzero;"/>
        </g>
        <g transform="matrix(34.9131,0,0,34.9131,1133.23,843.038)">
            <path d="M0.043,-0.329C0.043,-0.432 0.064,-0.513 0.106,-0.573C0.147,-0.632 0.202,-0.662 0.27,-0.662C0.341,-0.662 0.397,-0.632 0.439,-0.573C0.48,-0.513 0.501,-0.432 0.501,-0.329C0.501,-0.227 0.481,-0.145 0.441,-0.084C0.401,-0.023 0.344,0.008 0.27,0.008C0.201,0.008 0.146,-0.023 0.105,-0.084C0.064,-0.145 0.043,-0.227 0.043,-0.329ZM0.167,-0.52C0.138,-0.474 0.124,-0.411 0.124,-0.329C0.124,-0.247 0.138,-0.183 0.166,-0.137C0.194,-0.09 0.229,-0.067 0.27,-0.067C0.316,-0.067 0.353,-0.09 0.38,-0.135C0.406,-0.18 0.42,-0.245 0.42,-0.329C0.42,-0.412 0.406,-0.476 0.378,-0.521C0.349,-0.565 0.313,-0.587 0.27,-0.587C0.23,-0.587 0.196,-0.565 0.167,-0.52Z" style="fill:rgb(0,81,65);fill-rule:nonzero;"/>
        </g>
        <g transform="matrix(34.9131,0,0,34.9131,1152.22,843.038)">
            <rect x="0.028" y="0.031" width="0.505" height="0.069" style="fill:rgb(0,81,65);fill-rule:nonzero;"/>
        </g>
        <g transform="matrix(34.9131,0,0,34.9131,1171.81,843.038)">
            <path d="M0.043,-0.329C0.043,-0.432 0.064,-0.513 0.106,-0.573C0.147,-0.632 0.202,-0.662 0.27,-0.662C0.341,-0.662 0.397,-0.632 0.439,-0.573C0.48,-0.513 0.501,-0.432 0.501,-0.329C0.501,-0.227 0.481,-0.145 0.441,-0.084C0.401,-0.023 0.344,0.008 0.27,0.008C0.201,0.008 0.146,-0.023 0.105,-0.084C0.064,-0.145 0.043,-0.227 0.043,-0.329ZM0.167,-0.52C0.138,-0.474 0.124,-0.411 0.124,-0.329C0.124,-0.247 0.138,-0.183 0.166,-0.137C0.194,-0.09 0.229,-0.067 0.27,-0.067C0.316,-0.067 0.353,-0.09 0.38,-0.135C0.406,-0.18 0.42,-0.245 0.42,-0.329C0.42,-0.412 0.406,-0.476 0.378,-0.521C0.349,-0.565 0.313,-0.587 0.27,-0.587C0.23,-0.587 0.196,-0.565 0.167,-0.52Z" style="fill:rgb(0,81,65);fill-rule:nonzero;"/>
        </g>
        <g transform="matrix(34.9131,0,0,34.9131,1190.8,843.038)">
            <path d="M0.202,0L0.025,-0.507L0.107,-0.507L0.177,-0.293L0.251,-0.062C0.257,-0.091 0.282,-0.168 0.326,-0.293L0.398,-0.507L0.48,-0.507L0.299,0L0.202,0Z" style="fill:rgb(0,81,65);fill-rule:nonzero;"/>
        </g>
        <g transform="matrix(34.9131,0,0,34.9131,1208.43,843.038)">
            <path d="M0.058,-0.547L0.058,-0.624C0.097,-0.649 0.141,-0.661 0.192,-0.661C0.257,-0.661 0.307,-0.645 0.343,-0.612C0.378,-0.579 0.396,-0.538 0.396,-0.489C0.396,-0.454 0.387,-0.422 0.37,-0.394C0.352,-0.366 0.326,-0.345 0.291,-0.331C0.329,-0.322 0.359,-0.305 0.382,-0.279C0.404,-0.252 0.415,-0.219 0.415,-0.18C0.415,-0.127 0.396,-0.082 0.359,-0.047C0.322,-0.012 0.269,0.006 0.201,0.006C0.138,0.006 0.084,-0.005 0.038,-0.027L0.038,-0.106C0.087,-0.08 0.141,-0.067 0.199,-0.067C0.242,-0.067 0.275,-0.078 0.299,-0.1C0.322,-0.122 0.334,-0.151 0.334,-0.186C0.334,-0.221 0.321,-0.249 0.295,-0.268C0.268,-0.286 0.23,-0.296 0.181,-0.296L0.139,-0.296L0.139,-0.365L0.181,-0.365C0.218,-0.365 0.25,-0.376 0.276,-0.397C0.301,-0.418 0.314,-0.446 0.314,-0.481C0.314,-0.516 0.303,-0.543 0.281,-0.561C0.259,-0.579 0.229,-0.588 0.19,-0.588C0.144,-0.588 0.1,-0.574 0.058,-0.547Z" style="fill:rgb(0,81,65);fill-rule:nonzero;"/>
        </g>
        <g transform="matrix(34.9131,0,0,34.9131,1224.7,843.038)">
            <path d="M0.151,-0.507L0.151,-0.418C0.178,-0.481 0.224,-0.512 0.289,-0.512C0.301,-0.512 0.31,-0.511 0.317,-0.51L0.317,-0.432C0.303,-0.437 0.289,-0.439 0.274,-0.439C0.239,-0.439 0.209,-0.423 0.186,-0.39C0.163,-0.357 0.151,-0.32 0.151,-0.277L0.151,0L0.072,0L0.073,-0.507L0.151,-0.507Z" style="fill:rgb(0,81,65);fill-rule:nonzero;"/>
        </g>
        <g transform="matrix(34.9131,0,0,34.9131,1236.08,843.038)">
            <path d="M0.158,-0.604L0.158,-0.335L0.26,-0.335C0.306,-0.335 0.341,-0.347 0.366,-0.373C0.39,-0.398 0.402,-0.43 0.402,-0.469C0.402,-0.559 0.352,-0.604 0.251,-0.604L0.158,-0.604ZM0.525,0L0.428,0L0.263,-0.266L0.158,-0.266L0.158,0L0.077,0L0.077,-0.674L0.246,-0.674C0.324,-0.674 0.383,-0.656 0.424,-0.619C0.464,-0.582 0.484,-0.532 0.484,-0.467C0.483,-0.42 0.47,-0.381 0.447,-0.348C0.424,-0.315 0.391,-0.292 0.348,-0.279L0.525,0Z" style="fill:rgb(0,81,65);fill-rule:nonzero;"/>
        </g>
        <g transform="matrix(34.9131,0,0,34.9131,1255.22,843.038)">
            <path d="M0.346,-0.234L0.258,-0.234C0.215,-0.234 0.183,-0.226 0.162,-0.209C0.141,-0.192 0.13,-0.171 0.13,-0.146C0.13,-0.121 0.138,-0.1 0.155,-0.085C0.172,-0.069 0.196,-0.061 0.228,-0.061C0.264,-0.061 0.293,-0.071 0.314,-0.092C0.335,-0.112 0.346,-0.138 0.346,-0.169L0.346,-0.234ZM0.084,-0.401L0.084,-0.48C0.122,-0.503 0.172,-0.515 0.234,-0.515C0.361,-0.515 0.425,-0.45 0.425,-0.321L0.425,0L0.347,0L0.347,-0.06C0.321,-0.017 0.274,0.005 0.205,0.005C0.158,0.005 0.119,-0.009 0.091,-0.037C0.062,-0.065 0.047,-0.1 0.047,-0.143C0.047,-0.192 0.066,-0.23 0.102,-0.257C0.14,-0.283 0.19,-0.297 0.254,-0.297L0.346,-0.297L0.346,-0.323C0.346,-0.363 0.337,-0.393 0.319,-0.413C0.301,-0.434 0.271,-0.444 0.228,-0.444C0.174,-0.444 0.126,-0.43 0.084,-0.401Z" style="fill:rgb(0,81,65);fill-rule:nonzero;"/>
        </g>
        <g transform="matrix(34.9131,0,0,34.9131,1272.39,843.038)">
            <path d="M0.463,-0.674L0.463,-0.603L0.281,-0.603L0.281,0L0.2,0L0.2,-0.603L0.018,-0.603L0.018,-0.674L0.463,-0.674Z" style="fill:rgb(0,81,65);fill-rule:nonzero;"/>
        </g>
        <g transform="matrix(34.9131,0,0,34.9131,1289.22,843.038)">
            <path d="M0.058,-0.547L0.058,-0.624C0.097,-0.649 0.141,-0.661 0.192,-0.661C0.257,-0.661 0.307,-0.645 0.343,-0.612C0.378,-0.579 0.396,-0.538 0.396,-0.489C0.396,-0.454 0.387,-0.422 0.37,-0.394C0.352,-0.366 0.326,-0.345 0.291,-0.331C0.329,-0.322 0.359,-0.305 0.382,-0.279C0.404,-0.252 0.415,-0.219 0.415,-0.18C0.415,-0.127 0.396,-0.082 0.359,-0.047C0.322,-0.012 0.269,0.006 0.201,0.006C0.138,0.006 0.084,-0.005 0.038,-0.027L0.038,-0.106C0.087,-0.08 0.141,-0.067 0.199,-0.067C0.242,-0.067 0.275,-0.078 0.299,-0.1C0.322,-0.122 0.334,-0.151 0.334,-0.186C0.334,-0.221 0.321,-0.249 0.295,-0.268C0.268,-0.286 0.23,-0.296 0.181,-0.296L0.139,-0.296L0.139,-0.365L0.181,-0.365C0.218,-0.365 0.25,-0.376 0.276,-0.397C0.301,-0.418 0.314,-0.446 0.314,-0.481C0.314,-0.516 0.303,-0.543 0.281,-0.561C0.259,-0.579 0.229,-0.588 0.19,-0.588C0.144,-0.588 0.1,-0.574 0.058,-0.547Z" style="fill:rgb(0,81,65);fill-rule:nonzero;"/>
        </g>
        <g transform="matrix(34.9131,0,0,34.9131,1305.49,843.038)">
            <path d="M0.266,-0.064C0.307,-0.064 0.343,-0.079 0.372,-0.11C0.401,-0.141 0.415,-0.19 0.415,-0.257C0.415,-0.321 0.4,-0.368 0.37,-0.398C0.34,-0.428 0.307,-0.443 0.271,-0.443C0.229,-0.443 0.194,-0.426 0.167,-0.393C0.139,-0.359 0.125,-0.311 0.125,-0.248C0.125,-0.193 0.138,-0.149 0.165,-0.115C0.192,-0.081 0.225,-0.064 0.266,-0.064ZM0.415,-0.707L0.494,-0.707L0.494,0L0.415,0L0.415,-0.075C0.379,-0.02 0.327,0.008 0.259,0.008C0.192,0.008 0.139,-0.017 0.101,-0.067C0.062,-0.117 0.043,-0.178 0.043,-0.249C0.043,-0.328 0.063,-0.393 0.104,-0.442C0.145,-0.491 0.197,-0.515 0.261,-0.515C0.327,-0.515 0.378,-0.487 0.415,-0.43L0.415,-0.707Z" style="fill:rgb(0,81,65);fill-rule:nonzero;"/>
        </g>
        <g transform="matrix(34.9131,0,0,34.9131,1325.29,843.038)">
            <path d="M0.013,-0.627L0.013,-0.705C0.03,-0.71 0.046,-0.713 0.06,-0.713C0.096,-0.713 0.127,-0.699 0.152,-0.672C0.177,-0.645 0.19,-0.608 0.19,-0.563C0.19,-0.545 0.187,-0.52 0.18,-0.489C0.172,-0.458 0.169,-0.435 0.169,-0.42C0.169,-0.389 0.177,-0.363 0.192,-0.342C0.206,-0.32 0.228,-0.307 0.257,-0.303C0.264,-0.302 0.274,-0.301 0.286,-0.301L0.286,-0.224C0.273,-0.224 0.263,-0.223 0.257,-0.222C0.227,-0.216 0.205,-0.202 0.191,-0.181C0.176,-0.16 0.169,-0.134 0.169,-0.103C0.169,-0.088 0.172,-0.065 0.18,-0.034C0.187,-0.003 0.19,0.022 0.19,0.04C0.19,0.085 0.178,0.121 0.153,0.148C0.128,0.175 0.097,0.189 0.06,0.189C0.043,0.189 0.027,0.186 0.013,0.181L0.013,0.104C0.024,0.11 0.036,0.113 0.047,0.113C0.067,0.113 0.082,0.106 0.093,0.092C0.104,0.078 0.109,0.06 0.109,0.039C0.109,0.022 0.106,-0.004 0.099,-0.038C0.092,-0.072 0.089,-0.099 0.089,-0.119C0.089,-0.156 0.1,-0.187 0.121,-0.214C0.141,-0.24 0.171,-0.256 0.21,-0.262C0.171,-0.268 0.141,-0.284 0.121,-0.31C0.1,-0.336 0.089,-0.368 0.089,-0.405C0.089,-0.425 0.092,-0.452 0.099,-0.486C0.106,-0.519 0.109,-0.545 0.109,-0.562C0.109,-0.583 0.104,-0.601 0.093,-0.615C0.082,-0.629 0.067,-0.636 0.047,-0.636C0.036,-0.636 0.024,-0.633 0.013,-0.627Z" style="fill:rgb(0,81,65);fill-rule:nonzero;"/>
        </g>
    </g>
    
</svg>
